<?xml version="1.0" encoding="UTF-8" standalone="no"?>
<!DOCTYPE svg PUBLIC "-//W3C//DTD SVG 1.1//EN" "http://www.w3.org/Graphics/SVG/1.1/DTD/svg11.dtd">
<!-- Created with Vectornator (http://vectornator.io/) -->
<svg height="100%" stroke-miterlimit="10" style="fill-rule:nonzero;clip-rule:evenodd;stroke-linecap:round;stroke-linejoin:round;" version="1.1" viewBox="0 0 50 50" width="100%" xml:space="preserve" xmlns="http://www.w3.org/2000/svg" xmlns:vectornator="http://vectornator.io" xmlns:xlink="http://www.w3.org/1999/xlink">
<defs/>
<g id="Untitled" vectornator:layerName="Untitled">
<path d="M12.3805 12.3695L22.7512 12.3484L12.3593 22.7402L12.3805 12.3695Z" fill="#f2e144" fill-rule="nonzero" opacity="1" stroke="none"/>
<path d="M15.5244 19.4248L19.4242 15.525L19.4242 15.525L23.3241 19.4248L23.3241 19.4248L19.4242 23.3246L19.4242 23.3246L15.5244 19.4248L15.5244 19.4248Z" fill="#f2e144" fill-rule="nonzero" opacity="1" stroke="none"/>
<path d="M37.1285 37.1176L37.1497 26.7469L26.7578 37.1387L37.1285 37.1176Z" fill="#f2e144" fill-rule="nonzero" opacity="1" stroke="none"/>
<path d="M30.0732 33.9736L33.973 30.0738L33.973 30.0738L30.0732 26.1739L30.0732 26.1739L26.1734 30.0738L26.1734 30.0738L30.0732 33.9736L30.0732 33.9736Z" fill="#f2e144" fill-rule="nonzero" opacity="1" stroke="none"/>
<path d="M37.0697 12.3217L26.699 12.3005L37.0909 22.6923L37.0697 12.3217Z" fill="#f2e144" fill-rule="nonzero" opacity="1" stroke="none"/>
<path d="M33.9258 19.377L30.026 15.4772L30.026 15.4772L26.1261 19.377L26.1261 19.377L30.026 23.2768L30.026 23.2768L33.9258 19.377L33.9258 19.377Z" fill="#f2e144" fill-rule="nonzero" opacity="1" stroke="none"/>
<path d="M12.3209 37.0699L22.6916 37.0911L12.2998 26.6993L12.3209 37.0699Z" fill="#f2e144" fill-rule="nonzero" opacity="1" stroke="none"/>
<path d="M15.4648 30.0146L19.3646 33.9144L19.3646 33.9144L23.2645 30.0146L23.2645 30.0146L19.3646 26.1148L19.3646 26.1148L15.4648 30.0146L15.4648 30.0146Z" fill="#f2e144" fill-rule="nonzero" opacity="1" stroke="none"/>
</g>
</svg>
