<svg width="50" height="50" viewBox="0 0 50 50" fill="none" xmlns="http://www.w3.org/2000/svg">
<path d="M12.38 12.369L22.7507 12.3479L12.3589 22.7397L12.38 12.369Z" fill="#F2E144" fill-opacity="0.8"/>
<rect x="15.5244" y="19.4246" width="5.51519" height="5.51519" transform="rotate(-45 15.5244 19.4246)" fill="#F2E144" fill-opacity="0.8"/>
<path d="M37.129 37.1173L37.1502 26.7466L26.7583 37.1385L37.129 37.1173Z" fill="#F2E144" fill-opacity="0.8"/>
<rect width="5.51519" height="5.51519" transform="matrix(0.707107 -0.707107 -0.707107 -0.707107 30.0735 33.9731)" fill="#F2E144" fill-opacity="0.8"/>
<path d="M37.0699 12.3212L26.6992 12.3L37.0911 22.6919L37.0699 12.3212Z" fill="#F2E144" fill-opacity="0.8"/>
<rect width="5.51519" height="5.51519" transform="matrix(-0.707107 -0.707107 -0.707107 0.707107 33.926 19.376)" fill="#F2E144" fill-opacity="0.8"/>
<path d="M12.3204 37.0692L22.6911 37.0904L12.2993 26.6985L12.3204 37.0692Z" fill="#F2E144" fill-opacity="0.8"/>
<rect width="5.51519" height="5.51519" transform="matrix(0.707107 0.707107 0.707107 -0.707107 15.4646 30.0142)" fill="#F2E144" fill-opacity="0.8"/>
</svg>
