<?xml version="1.0" encoding="UTF-8" standalone="no"?>
<!DOCTYPE svg PUBLIC "-//W3C//DTD SVG 1.1//EN" "http://www.w3.org/Graphics/SVG/1.1/DTD/svg11.dtd">
<!-- Created with Vectornator (http://vectornator.io/) -->
<svg height="100%" stroke-miterlimit="10" style="fill-rule:nonzero;clip-rule:evenodd;stroke-linecap:round;stroke-linejoin:round;" version="1.1" viewBox="0 0 167.937 162.796" width="100%" xml:space="preserve" xmlns="http://www.w3.org/2000/svg" xmlns:vectornator="http://vectornator.io" xmlns:xlink="http://www.w3.org/1999/xlink">
<defs/>
<clipPath id="ArtboardFrame">
<rect height="162.796" width="167.937" x="0" y="0"/>
</clipPath>
<g clip-path="url(#ArtboardFrame)" id="Ebene-1" vectornator:layerName="Ebene 1">
<g opacity="1">
<path d="M91.75 2.15625C85.022 1.91327 78.2364 2.56362 71.6875 4.125C65.0331 5.71155 58.6098 8.25629 52.6562 11.625C45.5091 15.6691 39.0496 20.8936 33.625 27.0625C27.9992 33.4603 23.4934 40.8596 20.4375 48.8125C19.1109 52.2648 18.1977 57.1664 17.4688 61.9375C16.8284 61.8645 16.193 61.7708 15.5312 61.7812C7.24801 61.9123 0.618987 68.7168 0.75 77C1.43392 85.4992 1.07009 82.6752 1.4375 85.5C2.40988 92.9763 4.37421 100.355 7.28125 107.312C17.0777 130.759 37.4913 149.027 62 155.875C87.5141 163.004 115.38 157.381 135.875 140.531C141.82 135.644 147.087 129.902 151.406 123.531C155.494 117.503 158.734 110.91 161.031 104C163.658 96.1007 165.039 87.7951 165.062 79.4688C165.095 67.7478 162.498 56.0734 157.438 45.5C145.314 20.1665 119.88 3.17215 91.75 2.15625ZM80.1562 9.75C96.1377 8.80666 112.221 13.5531 125.062 23.5625C130.009 27.4181 134.41 31.9959 138.062 37.0938C141.504 41.8972 144.268 47.1656 146.281 52.7188C148.568 59.0272 149.828 65.6985 150.031 72.4062C150.319 81.9008 148.464 91.4603 144.562 100.125C135.304 120.689 115.379 134.915 92.7812 136.312C87.3893 136.646 81.9105 136.279 76.625 135.156C70.9718 133.955 65.4917 131.9 60.4375 129.094C54.9905 126.07 50.0349 122.174 45.8125 117.594C41.2386 112.632 37.5034 106.838 34.9375 100.594C32.8195 95.4398 31.4464 89.9568 30.9375 84.4062C30.6962 81.7747 30.9395 84.4224 30.75 76.5312C30.6333 69.1553 25.2224 63.144 18.1875 62C18.8361 58.9366 19.58 55.9737 20.4375 53.75C27.9474 34.2744 44.3347 18.747 64.3125 12.5938C69.491 10.9988 74.8291 10.0644 80.1562 9.75Z" fill="#dac94c" stroke="none"/>
</g>
</g>
</svg>
