<?xml version="1.0" encoding="UTF-8" standalone="no"?>
<!DOCTYPE svg PUBLIC "-//W3C//DTD SVG 1.1//EN" "http://www.w3.org/Graphics/SVG/1.1/DTD/svg11.dtd">
<!-- Created with Vectornator (http://vectornator.io/) -->
<svg height="100%" stroke-miterlimit="10" style="fill-rule:nonzero;clip-rule:evenodd;stroke-linecap:round;stroke-linejoin:round;" version="1.1" viewBox="0 0 164.805 164.81" width="100%" xml:space="preserve" xmlns="http://www.w3.org/2000/svg" xmlns:vectornator="http://vectornator.io" xmlns:xlink="http://www.w3.org/1999/xlink">
<defs/>
<g id="Ebene-1" vectornator:layerName="Ebene 1">
<path d="M91.2111 0.331495C84.496 0.0773445 77.7234 0.757594 71.187 2.39076C64.5453 4.05025 58.1343 6.71198 52.1921 10.2356C45.0587 14.4656 38.6115 19.9303 33.1973 26.3828C27.5822 33.0747 23.0851 40.8142 20.035 49.1328C18.7109 52.7438 17.7995 57.8707 17.072 62.8612C16.4328 62.7848 15.7986 62.6868 15.1381 62.6977C6.87073 62.8348 0.254386 69.9522 0.385148 78.6162C1.06776 87.5061 0.704626 84.5523 1.07133 87.507C2.04185 95.327 4.00243 103.045 6.90391 110.322C16.6816 134.847 37.0562 153.955 61.518 161.117C86.9833 168.574 114.796 162.693 135.252 145.068C141.185 139.956 146.442 133.95 150.753 127.286C154.833 120.981 158.067 114.085 160.36 106.857C162.982 98.595 164.36 89.9076 164.383 81.1985C164.416 68.9386 161.824 56.7275 156.774 45.668C144.673 19.1698 119.287 1.3941 91.2111 0.331495ZM79.6395 8.27437C95.5904 7.28766 111.643 12.2523 124.459 22.7219C129.397 26.7548 133.79 31.543 137.435 36.8753C140.87 41.8995 143.629 47.4101 145.638 53.2186C147.92 59.8171 149.178 66.7951 149.381 73.8112C149.668 83.7423 147.817 93.7413 143.922 102.804C134.682 124.314 114.795 139.194 92.2404 140.655C86.8588 141.004 81.3904 140.621 76.1151 139.446C70.4727 138.19 65.003 136.04 59.9585 133.105C54.5219 129.942 49.5758 125.867 45.3615 121.076C40.7963 115.886 37.0683 109.826 34.5073 103.295C32.3933 97.9037 31.0228 92.1687 30.5149 86.3629C30.2741 83.6104 30.5169 86.3798 30.3278 78.1258C30.2113 70.4108 24.8108 64.1231 17.7893 62.9266C18.4367 59.7223 19.1791 56.6232 20.035 54.2973C27.5305 33.9263 43.8865 17.685 63.8261 11.2489C68.9947 9.58058 74.3226 8.60322 79.6395 8.27437Z" fill="#dac94c" fill-rule="nonzero" opacity="1" stroke="none"/>
</g>
</svg>
