<?xml version="1.0" encoding="UTF-8" standalone="no"?>
<!DOCTYPE svg PUBLIC "-//W3C//DTD SVG 1.1//EN" "http://www.w3.org/Graphics/SVG/1.1/DTD/svg11.dtd">
<!-- Created with Vectornator (http://vectornator.io/) -->
<svg height="100%" stroke-miterlimit="10" style="fill-rule:nonzero;clip-rule:evenodd;stroke-linecap:round;stroke-linejoin:round;" version="1.1" viewBox="0 0 950.6 262.816" width="100%" xml:space="preserve" xmlns="http://www.w3.org/2000/svg" xmlns:vectornator="http://vectornator.io" xmlns:xlink="http://www.w3.org/1999/xlink">
<defs>
<clipPath id="TextBounds">
<rect height="137.476" transform="matrix(1 0 0 1 2.96763 30.3177)" width="715.915" x="0" y="0"/>
</clipPath>
<clipPath id="TextBounds_2">
<rect height="69.7224" transform="matrix(1 0 0 1 6.17114 165.093)" width="733.514" x="0" y="0"/>
</clipPath>
<clipPath id="TextBounds_3">
<rect height="1" transform="matrix(1 0 0 1 757.525 150.35)" width="0" x="0" y="0"/>
</clipPath>
</defs>
<g id="Untitled" vectornator:layerName="Untitled">
<path d="M843.338 40.454C813.967 40.454 785.905 54.7558 768.864 78.3002C793.099 51.6101 837.153 44.2606 867.69 64.7216C882.649 74.747 893.076 90.9281 895.281 108.675C897.301 124.912 892.214 141.924 880.174 153.455C869.365 163.804 852.304 169.425 837.432 165.897C830.268 164.197 823.697 160.048 819.184 154.304C813.855 147.517 811.975 138.911 813.314 130.489C814.928 138.95 819.424 147.011 827.068 151.536C835.25 156.379 845.212 155.747 853.923 152.7C861.942 149.894 868.888 144.336 873.046 136.994C877.716 128.746 878.798 118.776 877.049 109.575C873.998 93.4882 861.899 80.3685 846.825 74.0196C830.55 67.1659 811.134 68.5707 795.017 75.173C777.639 82.291 757.638 104.285 755.081 130.351C752.11 160.659 768.442 183.299 776.525 191.802C788.761 204.685 804.743 214.05 822.44 218.127C852.546 225.059 884.858 216.256 907.029 195.047C929.185 173.853 939.059 142.37 932.943 112.551C926.963 83.4026 906.008 58.4932 878.089 47.1871C867.09 42.7319 855.23 40.454 843.338 40.454" fill="#dac94c" fill-rule="nonzero" opacity="1" stroke="none"/>
<g fill="#ffffff" opacity="1" stroke="none">
<path clip-path="url(#TextBounds)" d="M11.0756 149.318L11.0756 64.4757L79.5175 64.4757C82.5203 64.4757 85.2727 65.2196 87.7747 66.7075C90.2767 68.1954 92.279 70.191 93.7816 72.6942C95.2843 75.1974 96.0356 77.9369 96.0356 80.9127L96.0356 103.777C96.0356 106.753 95.2843 109.493 93.7816 111.996C92.279 114.5 90.2767 116.496 87.7747 117.983C85.2727 119.47 82.5203 120.214 79.5175 120.214L26.6516 120.295L26.6516 149.318L11.0756 149.318ZM28.0824 104.52L78.8666 104.52C79.2575 104.52 79.5937 104.386 79.8752 104.117C80.1566 103.849 80.2974 103.518 80.2974 103.126L80.2974 81.4824C80.2974 81.0915 80.1566 80.7554 79.8752 80.4739C79.5937 80.1924 79.2575 80.0517 78.8666 80.0517L28.0824 80.0517C27.6915 80.0517 27.3553 80.1924 27.0738 80.4739C26.7924 80.7554 26.6516 81.0915 26.6516 81.4824L26.6516 103.126C26.6516 103.518 26.7924 103.849 27.0738 104.117C27.3553 104.386 27.6915 104.52 28.0824 104.52Z"/>
<path clip-path="url(#TextBounds)" d="M107.747 149.318L107.747 64.3577L123.198 64.3577L123.198 149.318L107.747 149.318Z"/>
<path clip-path="url(#TextBounds)" d="M171.714 149.318L171.714 149.318L171.714 80.0148L137.044 80.0148L137.044 64.3577L222.004 64.3577L222.004 80.0148L187.371 80.0148L187.371 149.318L171.714 149.318Z"/>
<path clip-path="url(#TextBounds)" d="M235.402 149.318L235.402 149.318L235.402 83.1977L317.384 83.1977C320.308 83.1977 322.952 83.9164 325.317 85.3539C327.682 86.7913 329.564 88.694 330.964 91.0619C332.363 93.4297 333.063 96.0351 333.063 98.878L333.063 149.318L318.25 149.318L318.25 99.505C318.25 99.1274 318.108 98.8029 317.825 98.5315C317.542 98.2602 317.211 98.1245 316.834 98.1245L293.209 98.1245C292.831 98.1245 292.507 98.2602 292.235 98.5315C291.963 98.8029 291.827 99.1274 291.827 99.505L291.827 149.318L276.788 149.318L276.788 99.505C276.788 99.1274 276.652 98.8029 276.38 98.5315C276.108 98.2602 275.783 98.1245 275.405 98.1245L251.745 98.1245C251.368 98.1245 251.043 98.2602 250.772 98.5315C250.5 98.8029 250.365 99.1274 250.365 99.505L250.365 149.318L235.402 149.318Z"/>
<path clip-path="url(#TextBounds)" d="M364.911 149.318C362.049 149.318 359.426 148.599 357.041 147.161C354.657 145.724 352.759 143.821 351.348 141.453C349.936 139.086 349.23 136.48 349.23 133.637L349.23 108.755L401.407 108.755L401.407 99.505C401.407 99.1274 401.271 98.8029 401 98.5315C400.729 98.2602 400.403 98.1245 400.025 98.1245L349.23 98.1245L349.23 83.1977L400.653 83.1977C403.573 83.1977 406.214 83.9131 408.576 85.3441C410.937 86.775 412.826 88.6827 414.243 91.0672C415.661 93.4517 416.369 96.0553 416.369 98.878L416.369 149.318L364.911 149.318ZM365.54 134.391L401.407 134.391L401.407 122.189L364.157 122.189L364.157 133.009C364.157 133.387 364.293 133.712 364.564 133.984C364.836 134.255 365.161 134.391 365.54 134.391Z"/>
<path clip-path="url(#TextBounds)" d="M446.055 149.318C443.212 149.318 440.607 148.599 438.239 147.161C435.871 145.724 433.968 143.821 432.531 141.453C431.094 139.086 430.375 136.48 430.375 133.637L430.375 131.076L445.302 131.076L445.302 133.009C445.302 133.387 445.437 133.712 445.709 133.984C445.98 134.255 446.305 134.391 446.684 134.391L481.169 134.391C481.548 134.391 481.873 134.255 482.144 133.984C482.415 133.712 482.551 133.387 482.551 133.009L482.551 125.143C482.551 124.764 482.415 124.439 482.144 124.167C481.873 123.896 481.548 123.76 481.169 123.76L446.055 123.76C443.212 123.76 440.607 123.042 438.239 121.604C435.871 120.167 433.968 118.264 432.531 115.896C431.094 113.528 430.375 110.923 430.375 108.08L430.375 98.878C430.375 96.0351 431.094 93.4297 432.531 91.0619C433.968 88.694 435.871 86.7913 438.239 85.3539C440.607 83.9164 443.212 83.1977 446.055 83.1977L481.798 83.1977C484.723 83.1977 487.367 83.9164 489.732 85.3539C492.097 86.7913 493.998 88.694 495.436 91.0619C496.873 93.4297 497.592 96.0351 497.592 98.878L497.592 101.439L482.551 101.439L482.551 99.505C482.551 99.1274 482.415 98.8029 482.144 98.5315C481.873 98.2602 481.548 98.1245 481.169 98.1245L446.684 98.1245C446.305 98.1245 445.98 98.2602 445.709 98.5315C445.437 98.8029 445.302 99.1274 445.302 99.505L445.302 107.373C445.302 107.752 445.437 108.077 445.709 108.348C445.98 108.619 446.305 108.755 446.684 108.755L481.798 108.755C484.723 108.755 487.367 109.474 489.732 110.911C492.097 112.349 493.998 114.251 495.436 116.619C496.873 118.987 497.592 121.592 497.592 124.435L497.592 133.637C497.592 136.48 496.873 139.086 495.436 141.453C493.998 143.821 492.097 145.724 489.732 147.161C487.367 148.599 484.723 149.318 481.798 149.318L446.055 149.318Z"/>
<path clip-path="url(#TextBounds)" d="M529.908 149.318C526.983 149.318 524.338 148.599 521.973 147.161C519.608 145.724 517.713 143.821 516.287 141.453C514.862 139.086 514.149 136.48 514.149 133.637L514.149 62.952L529.076 62.952L529.076 83.1977L554.861 83.1977L554.861 98.1245L529.076 98.1245L529.076 133.009C529.076 133.387 529.211 133.712 529.483 133.984C529.754 134.255 530.079 134.391 530.458 134.391L554.861 134.391L554.861 149.318L529.908 149.318Z"/>
<path clip-path="url(#TextBounds)" d="M584.562 149.318C581.72 149.318 579.114 148.599 576.746 147.161C574.378 145.724 572.476 143.821 571.038 141.453C569.601 139.086 568.882 136.48 568.882 133.637L568.882 98.878C568.882 96.0351 569.601 93.4297 571.038 91.0619C572.476 88.694 574.378 86.7913 576.746 85.3539C579.114 83.9164 581.72 83.1977 584.562 83.1977L620.305 83.1977C623.225 83.1977 625.866 83.9131 628.227 85.3441C630.589 86.775 632.478 88.6827 633.895 91.0672C635.312 93.4517 636.021 96.0553 636.021 98.878L636.021 123.76L583.809 123.76L583.809 133.009C583.809 133.387 583.945 133.712 584.216 133.984C584.487 134.255 584.812 134.391 585.191 134.391L636.021 134.391L636.021 149.318L584.562 149.318ZM583.809 110.326L621.059 110.326L621.059 99.505C621.059 99.1274 620.923 98.8029 620.652 98.5315C620.38 98.2602 620.055 98.1245 619.676 98.1245L585.191 98.1245C584.812 98.1245 584.487 98.2602 584.216 98.5315C583.945 98.8029 583.809 99.1274 583.809 99.505L583.809 110.326Z"/>
<path clip-path="url(#TextBounds)" d="M652.157 149.318L652.157 149.318L652.157 98.878C652.157 96.0351 652.876 93.4297 654.313 91.0619C655.751 88.694 657.662 86.7913 660.046 85.3539C662.431 83.9164 665.054 83.1977 667.916 83.1977L704.608 83.1977L704.608 98.1245L668.466 98.1245C668.087 98.1245 667.762 98.2602 667.491 98.5315C667.22 98.8029 667.084 99.1274 667.084 99.505L667.084 149.318L652.157 149.318Z"/>
</g>
<g fill="#dac94c" opacity="1" stroke="none">
<path clip-path="url(#TextBounds_2)" d="M22.8601 219.093L22.8601 202.379L10.2941 176.393L18.3461 176.393L27.9231 197.865L24.9951 197.865L34.6331 176.393L42.6241 176.393L30.0581 202.379L30.0581 219.093L22.8601 219.093Z"/>
<path clip-path="url(#TextBounds_2)" d="M60.8021 219.093L60.8021 187.922L67.8171 187.922L67.8171 219.093L60.8021 219.093ZM52.2011 219.093L52.2011 212.932L76.4181 212.932L76.4181 219.093L52.2011 219.093ZM52.2011 194.083L52.2011 187.922L65.3771 187.922L65.3771 194.083L52.2011 194.083ZM64.2653 183.591C63.1155 183.591 62.1391 183.179 61.3359 182.355C60.5327 181.532 60.1311 180.541 60.1311 179.382C60.1311 178.223 60.5327 177.242 61.3359 176.438C62.1391 175.635 63.1155 175.234 64.2653 175.234C65.4742 175.234 66.4802 175.635 67.2834 176.438C68.0866 177.242 68.4881 178.223 68.4881 179.382C68.4881 180.541 68.0866 181.532 67.2834 182.355C66.4802 183.179 65.4742 183.591 64.2653 183.591Z"/>
<path clip-path="url(#TextBounds_2)" d="M102.282 219.825C99.1915 219.825 96.5329 219.149 94.3064 217.796C92.0799 216.444 90.3719 214.543 89.1824 212.093C87.9929 209.643 87.3981 206.771 87.3981 203.477C87.3981 200.101 88.0081 197.199 89.2281 194.769C90.4481 192.339 92.1714 190.468 94.3979 189.157C96.6244 187.845 99.2525 187.19 102.282 187.19C104.783 187.19 107.06 187.718 109.114 188.776C111.168 189.833 112.8 191.449 114.009 193.625C115.219 195.801 115.824 198.576 115.824 201.952C115.824 202.501 115.814 203.151 115.794 203.904C115.773 204.656 115.702 205.429 115.58 206.222L92.7661 206.222L92.7661 200.244L108.931 200.244C108.789 198.637 108.392 197.326 107.742 196.309C107.091 195.292 106.288 194.545 105.332 194.067C104.376 193.59 103.36 193.351 102.282 193.351C99.4151 193.351 97.3462 194.245 96.0754 196.035C94.8046 197.824 94.1691 200.264 94.1691 203.355C94.1691 206.425 94.8859 208.901 96.3194 210.781C97.7529 212.662 99.7608 213.603 102.343 213.603C103.726 213.603 104.976 213.359 106.095 212.871C107.213 212.383 108.26 211.61 109.236 210.553L113.445 215.006C112.144 216.429 110.563 217.588 108.702 218.483C106.842 219.377 104.702 219.825 102.282 219.825Z"/>
<path clip-path="url(#TextBounds_2)" d="M135.649 219.093L135.649 175.051L142.664 175.051L142.664 219.093L135.649 219.093ZM126.56 219.093L126.56 212.932L151.753 212.932L151.753 219.093L126.56 219.093ZM128.39 181.212L125.157 175.051L142.664 175.051L142.664 181.212L128.39 181.212Z"/>
<path clip-path="url(#TextBounds_2)" d="M175.665 219.825C172.839 219.825 170.399 219.184 168.345 217.903C166.291 216.622 164.711 214.762 163.602 212.322C162.494 209.882 161.94 206.933 161.94 203.477C161.94 200.101 162.52 197.199 163.679 194.769C164.838 192.339 166.434 190.468 168.467 189.157C170.5 187.845 172.839 187.19 175.482 187.19C177.231 187.19 178.771 187.479 180.103 188.059C181.435 188.638 182.477 189.345 183.229 190.179L183.229 178.284L190.244 175.051L190.244 219.093L183.229 219.093L183.229 216.714C182.66 217.466 181.709 218.173 180.377 218.833C179.046 219.494 177.475 219.825 175.665 219.825ZM176.641 213.115C178.288 213.115 179.63 212.855 180.667 212.337C181.704 211.818 182.558 211.061 183.229 210.065L183.229 196.889C182.741 196.218 181.968 195.542 180.911 194.86C179.854 194.179 178.39 193.839 176.519 193.839C174.12 193.839 172.269 194.667 170.968 196.324C169.667 197.982 169.016 200.366 169.016 203.477C169.016 205.388 169.311 207.065 169.901 208.509C170.49 209.953 171.349 211.081 172.478 211.895C173.606 212.708 174.994 213.115 176.641 213.115Z"/>
<path clip-path="url(#TextBounds_2)" d="M237.763 219.093L237.763 176.393L266.555 176.393L266.555 183.286L245.022 183.286L245.022 193.595L260.699 193.595L260.699 200.488L245.022 200.488L245.022 219.093L237.763 219.093Z"/>
<path clip-path="url(#TextBounds_2)" d="M287.112 219.825C284.936 219.825 282.979 219.438 281.241 218.666C279.502 217.893 278.125 216.739 277.108 215.204C276.091 213.669 275.583 211.752 275.583 209.455C275.583 207.055 276.193 205.098 277.413 203.583C278.633 202.069 280.194 200.95 282.095 200.228C283.996 199.507 285.973 199.146 288.027 199.146C289.613 199.146 291.026 199.283 292.267 199.557C293.507 199.832 294.676 200.244 295.774 200.793L295.774 198.963C295.774 197.58 295.53 196.477 295.042 195.653C294.554 194.83 293.848 194.24 292.922 193.884C291.997 193.529 290.894 193.351 289.613 193.351C287.885 193.351 286.172 193.635 284.474 194.205C282.776 194.774 281.195 195.547 279.731 196.523L277.596 190.789C279.101 189.833 280.951 188.994 283.147 188.272C285.343 187.551 287.702 187.19 290.223 187.19C291.606 187.19 293.024 187.327 294.478 187.601C295.932 187.876 297.274 188.415 298.504 189.218C299.734 190.021 300.725 191.2 301.478 192.756C302.23 194.311 302.606 196.36 302.606 198.902L302.606 219.093L295.774 219.093L295.774 216.653C294.92 217.466 293.797 218.198 292.404 218.849C291.011 219.499 289.247 219.825 287.112 219.825ZM288.393 213.664C290.101 213.664 291.56 213.348 292.77 212.718C293.98 212.088 294.981 211.366 295.774 210.553L295.774 206.527C294.92 206.1 293.919 205.759 292.77 205.505C291.621 205.251 290.406 205.124 289.125 205.124C287.336 205.124 285.76 205.464 284.398 206.145C283.035 206.827 282.354 207.93 282.354 209.455C282.354 210.695 282.883 211.707 283.94 212.489C284.997 213.272 286.482 213.664 288.393 213.664Z"/>
<path clip-path="url(#TextBounds_2)" d="M311.39 219.093L311.39 212.932L317.978 212.932L317.978 194.083L311.39 194.083L311.39 187.922L324.505 187.922L324.505 194.815L324.139 193.9C324.525 192.619 325.242 191.47 326.289 190.453C327.337 189.436 328.638 188.638 330.193 188.059C331.749 187.479 333.472 187.19 335.363 187.19C336.929 187.19 338.311 187.357 339.511 187.693C340.711 188.028 341.707 188.41 342.5 188.837L342.5 200.366L335.668 200.366L335.668 190.911L338.657 193.961C338.047 193.859 337.483 193.783 336.964 193.732C336.446 193.681 336.014 193.656 335.668 193.656C333.106 193.656 331.042 194.027 329.477 194.769C327.911 195.511 326.772 196.573 326.061 197.956C325.349 199.339 324.993 200.976 324.993 202.867L324.993 212.932L333.716 212.932L333.716 219.093L311.39 219.093Z"/>
<path clip-path="url(#TextBounds_2)" d="M348.539 219.093L348.539 187.922L354.944 187.922L354.944 195.608L353.846 194.998C354.151 192.558 354.888 190.646 356.057 189.264C357.227 187.881 358.706 187.19 360.495 187.19C362.081 187.19 363.342 187.667 364.277 188.623C365.212 189.579 365.863 190.606 366.229 191.704C366.941 190.565 367.871 189.528 369.02 188.593C370.169 187.657 371.597 187.19 373.305 187.19C375.745 187.19 377.595 188.064 378.856 189.813C380.117 191.561 380.747 194.632 380.747 199.024L380.747 219.093L374.342 219.093L374.342 200.061C374.342 197.926 374.149 196.365 373.763 195.379C373.376 194.393 372.614 193.9 371.475 193.9C370.763 193.9 370.148 194.144 369.63 194.632C369.111 195.12 368.71 195.826 368.425 196.751C368.14 197.677 367.998 198.8 367.998 200.122L367.998 219.093L361.593 219.093L361.593 199.878C361.593 198.617 361.491 197.539 361.288 196.645C361.085 195.75 360.77 195.069 360.343 194.601C359.916 194.133 359.356 193.9 358.665 193.9C357.913 193.9 357.257 194.144 356.698 194.632C356.139 195.12 355.707 195.826 355.402 196.751C355.097 197.677 354.944 198.8 354.944 200.122L354.944 219.093L348.539 219.093Z"/>
<path clip-path="url(#TextBounds_2)" d="M398.986 219.093L398.986 187.922L406.001 187.922L406.001 219.093L398.986 219.093ZM390.385 219.093L390.385 212.932L414.602 212.932L414.602 219.093L390.385 219.093ZM390.385 194.083L390.385 187.922L403.561 187.922L403.561 194.083L390.385 194.083ZM402.449 183.591C401.3 183.591 400.323 183.179 399.52 182.355C398.717 181.532 398.315 180.541 398.315 179.382C398.315 178.223 398.717 177.242 399.52 176.438C400.323 175.635 401.3 175.234 402.449 175.234C403.658 175.234 404.664 175.635 405.467 176.438C406.271 177.242 406.672 178.223 406.672 179.382C406.672 180.541 406.271 181.532 405.467 182.355C404.664 183.179 403.658 183.591 402.449 183.591Z"/>
<path clip-path="url(#TextBounds_2)" d="M426.131 219.093L426.131 187.922L433.146 187.922L433.146 195.303L432.231 193.229C432.231 192.314 432.668 191.394 433.543 190.468C434.417 189.543 435.591 188.765 437.065 188.135C438.54 187.505 440.181 187.19 441.991 187.19C444.065 187.19 445.976 187.596 447.725 188.41C449.474 189.223 450.877 190.57 451.934 192.451C452.991 194.332 453.52 196.868 453.52 200.061L453.52 219.093L446.505 219.093L446.505 201.525C446.505 198.658 445.87 196.66 444.599 195.531C443.328 194.403 441.808 193.839 440.039 193.839C438.799 193.839 437.655 194.067 436.608 194.525C435.561 194.982 434.722 195.76 434.092 196.858C433.461 197.956 433.146 199.471 433.146 201.403L433.146 219.093L426.131 219.093Z"/>
<path clip-path="url(#TextBounds_2)" d="M475.541 231.476L471.759 225.742C474.707 225.518 477.015 225.147 478.683 224.628C480.35 224.11 481.524 223.378 482.205 222.432C482.887 221.487 483.227 220.272 483.227 218.788L483.227 216.958C482.312 217.995 481.25 218.732 480.04 219.169C478.83 219.606 477.473 219.825 475.968 219.825C473.528 219.825 471.332 219.215 469.38 217.995C467.428 216.775 465.883 214.955 464.744 212.535C463.605 210.115 463.036 207.096 463.036 203.477C463.036 200.101 463.59 197.199 464.698 194.769C465.807 192.339 467.342 190.468 469.304 189.157C471.266 187.845 473.528 187.19 476.09 187.19C477.208 187.19 478.215 187.312 479.11 187.556C480.004 187.8 480.792 188.125 481.473 188.532C482.155 188.938 482.739 189.386 483.227 189.874L483.227 187.922L490.242 187.922L490.242 215.799C490.242 218.442 489.978 220.714 489.449 222.615C488.92 224.517 488.077 226.092 486.918 227.343C485.759 228.593 484.244 229.549 482.373 230.21C480.502 230.871 478.225 231.293 475.541 231.476ZM477.188 213.115C478.53 213.115 479.704 212.845 480.711 212.306C481.717 211.768 482.556 210.98 483.227 209.943L483.227 196.95C482.658 196.116 481.87 195.389 480.863 194.769C479.857 194.149 478.632 193.839 477.188 193.839C474.87 193.839 473.101 194.667 471.881 196.324C470.661 197.982 470.051 200.366 470.051 203.477C470.051 206.405 470.671 208.743 471.912 210.492C473.152 212.24 474.911 213.115 477.188 213.115Z"/>
<path clip-path="url(#TextBounds_2)" d="M553.194 219.825C550.307 219.825 547.801 219.21 545.676 217.979C543.551 216.749 541.802 215.082 540.43 212.977C539.057 210.873 538.036 208.504 537.365 205.871C536.694 203.238 536.358 200.528 536.358 197.743C536.358 195.079 536.704 192.441 537.395 189.828C538.086 187.215 539.134 184.841 540.537 182.706C541.94 180.571 543.693 178.863 545.798 177.582C547.902 176.301 550.368 175.661 553.194 175.661C555.614 175.661 557.652 176.072 559.309 176.896C560.967 177.719 562.354 178.787 563.473 180.098C564.591 181.41 565.557 182.798 566.37 184.262L559.965 187.922C559.213 186.478 558.303 185.222 557.235 184.155C556.168 183.087 554.821 182.554 553.194 182.554C551.486 182.554 550.042 183.016 548.863 183.941C547.684 184.867 546.728 186.087 545.996 187.601C545.264 189.116 544.735 190.763 544.41 192.542C544.085 194.322 543.922 196.055 543.922 197.743C543.922 199.674 544.11 201.545 544.486 203.355C544.863 205.164 545.427 206.791 546.179 208.235C546.931 209.678 547.892 210.822 549.061 211.666C550.231 212.51 551.608 212.932 553.194 212.932C555.451 212.932 557.144 212.174 558.272 210.659C559.401 209.145 559.965 207.259 559.965 205.002L559.965 204.087L552.523 204.087L552.523 197.255L567.407 197.255L567.407 203.172C567.407 206.771 566.782 209.81 565.531 212.291C564.281 214.772 562.583 216.648 560.438 217.918C558.293 219.189 555.878 219.825 553.194 219.825Z"/>
<path clip-path="url(#TextBounds_2)" d="M587.72 219.825C585.544 219.825 583.587 219.438 581.849 218.666C580.11 217.893 578.733 216.739 577.716 215.204C576.699 213.669 576.191 211.752 576.191 209.455C576.191 207.055 576.801 205.098 578.021 203.583C579.241 202.069 580.802 200.95 582.703 200.228C584.604 199.507 586.581 199.146 588.635 199.146C590.221 199.146 591.634 199.283 592.875 199.557C594.115 199.832 595.284 200.244 596.382 200.793L596.382 198.963C596.382 197.58 596.138 196.477 595.65 195.653C595.162 194.83 594.456 194.24 593.53 193.884C592.605 193.529 591.502 193.351 590.221 193.351C588.493 193.351 586.78 193.635 585.082 194.205C583.384 194.774 581.803 195.547 580.339 196.523L578.204 190.789C579.709 189.833 581.559 188.994 583.755 188.272C585.951 187.551 588.31 187.19 590.831 187.19C592.214 187.19 593.632 187.327 595.086 187.601C596.54 187.876 597.882 188.415 599.112 189.218C600.342 190.021 601.333 191.2 602.086 192.756C602.838 194.311 603.214 196.36 603.214 198.902L603.214 219.093L596.382 219.093L596.382 216.653C595.528 217.466 594.405 218.198 593.012 218.849C591.619 219.499 589.855 219.825 587.72 219.825ZM589.001 213.664C590.709 213.664 592.168 213.348 593.378 212.718C594.588 212.088 595.589 211.366 596.382 210.553L596.382 206.527C595.528 206.1 594.527 205.759 593.378 205.505C592.229 205.251 591.014 205.124 589.733 205.124C587.944 205.124 586.368 205.464 585.006 206.145C583.643 206.827 582.962 207.93 582.962 209.455C582.962 210.695 583.491 211.707 584.548 212.489C585.605 213.272 587.09 213.664 589.001 213.664Z"/>
<path clip-path="url(#TextBounds_2)" d="M611.571 219.093L611.571 187.922L617.976 187.922L617.976 195.608L616.878 194.998C617.183 192.558 617.92 190.646 619.089 189.264C620.259 187.881 621.738 187.19 623.527 187.19C625.113 187.19 626.374 187.667 627.309 188.623C628.244 189.579 628.895 190.606 629.261 191.704C629.973 190.565 630.903 189.528 632.052 188.593C633.201 187.657 634.629 187.19 636.337 187.19C638.777 187.19 640.627 188.064 641.888 189.813C643.149 191.561 643.779 194.632 643.779 199.024L643.779 219.093L637.374 219.093L637.374 200.061C637.374 197.926 637.181 196.365 636.795 195.379C636.408 194.393 635.646 193.9 634.507 193.9C633.795 193.9 633.18 194.144 632.662 194.632C632.143 195.12 631.742 195.826 631.457 196.751C631.172 197.677 631.03 198.8 631.03 200.122L631.03 219.093L624.625 219.093L624.625 199.878C624.625 198.617 624.523 197.539 624.32 196.645C624.117 195.75 623.802 195.069 623.375 194.601C622.948 194.133 622.388 193.9 621.697 193.9C620.945 193.9 620.289 194.144 619.73 194.632C619.171 195.12 618.739 195.826 618.434 196.751C618.129 197.677 617.976 198.8 617.976 200.122L617.976 219.093L611.571 219.093Z"/>
<path clip-path="url(#TextBounds_2)" d="M665.922 219.825C662.831 219.825 660.173 219.149 657.946 217.796C655.72 216.444 654.012 214.543 652.822 212.093C651.633 209.643 651.038 206.771 651.038 203.477C651.038 200.101 651.648 197.199 652.868 194.769C654.088 192.339 655.811 190.468 658.038 189.157C660.264 187.845 662.892 187.19 665.922 187.19C668.423 187.19 670.7 187.718 672.754 188.776C674.808 189.833 676.44 191.449 677.649 193.625C678.859 195.801 679.464 198.576 679.464 201.952C679.464 202.501 679.454 203.151 679.434 203.904C679.413 204.656 679.342 205.429 679.22 206.222L656.406 206.222L656.406 200.244L672.571 200.244C672.429 198.637 672.032 197.326 671.382 196.309C670.731 195.292 669.928 194.545 668.972 194.067C668.016 193.59 667 193.351 665.922 193.351C663.055 193.351 660.986 194.245 659.715 196.035C658.445 197.824 657.809 200.264 657.809 203.355C657.809 206.425 658.526 208.901 659.959 210.781C661.393 212.662 663.401 213.603 665.983 213.603C667.366 213.603 668.616 213.359 669.735 212.871C670.853 212.383 671.9 211.61 672.876 210.553L677.085 215.006C675.784 216.429 674.203 217.588 672.342 218.483C670.482 219.377 668.342 219.825 665.922 219.825Z"/>
</g>
<g fill="#000000" opacity="1" stroke="none"/>
</g>
</svg>
