<?xml version="1.0" encoding="UTF-8" standalone="no"?>
<!DOCTYPE svg PUBLIC "-//W3C//DTD SVG 1.1//EN" "http://www.w3.org/Graphics/SVG/1.1/DTD/svg11.dtd">
<!-- Created with Vectornator (http://vectornator.io/) -->
<svg height="100%" stroke-miterlimit="10" style="fill-rule:nonzero;clip-rule:evenodd;stroke-linecap:round;stroke-linejoin:round;" version="1.1" viewBox="0 0 114 114" width="100%" xml:space="preserve" xmlns="http://www.w3.org/2000/svg" xmlns:vectornator="http://vectornator.io" xmlns:xlink="http://www.w3.org/1999/xlink">
<defs/>
<g id="Untitled" vectornator:layerName="Untitled">
<path d="M48.8663 49.0234L25.1608 49.0717L48.9146 25.3179L48.8663 49.0234Z" fill="#f2e144" fill-rule="nonzero" opacity="1" stroke="none"/>
<path d="M41.6807 32.8965L32.7664 41.8108L32.7664 41.8108L23.8521 32.8965L23.8521 32.8965L32.7664 23.9822L32.7664 23.9822L41.6807 32.8965L41.6807 32.8965Z" fill="#f2e144" fill-rule="nonzero" opacity="1" stroke="none"/>
<path d="M64.294 64.4501L64.2456 88.1556L87.9995 64.4018L64.294 64.4501Z" fill="#f2e144" fill-rule="nonzero" opacity="1" stroke="none"/>
<path d="M80.4209 71.6357L71.5066 80.55L71.5066 80.55L80.4209 89.4643L80.4209 89.4643L89.3352 80.55L89.3352 80.55L80.4209 71.6357L80.4209 71.6357Z" fill="#f2e144" fill-rule="nonzero" opacity="1" stroke="none"/>
<path d="M64.1611 48.914L87.8665 48.9624L64.1127 25.2086L64.1611 48.914Z" fill="#f2e144" fill-rule="nonzero" opacity="1" stroke="none"/>
<path d="M71.3467 32.7871L80.261 41.7014L80.261 41.7014L89.1753 32.7871L89.1753 32.7871L80.261 23.8728L80.261 23.8728L71.3467 32.7871L71.3467 32.7871Z" fill="#f2e144" fill-rule="nonzero" opacity="1" stroke="none"/>
<path d="M48.7325 64.3389L25.027 64.2906L48.7808 88.0444L48.7325 64.3389Z" fill="#f2e144" fill-rule="nonzero" opacity="1" stroke="none"/>
<path d="M41.5469 80.4658L32.6326 71.5515L32.6326 71.5515L23.7183 80.4658L23.7183 80.4658L32.6326 89.3801L32.6326 89.3801L41.5469 80.4658L41.5469 80.4658Z" fill="#f2e144" fill-rule="nonzero" opacity="1" stroke="none"/>
</g>
</svg>
